<svg width="55" height="50" fill="none" xmlns="http://www.w3.org/2000/svg"><rect width="50" height="50" rx="19" fill="#4DADF7"/><path d="M30.248 19.429h.857c.161 0 .286-.125.286-.286v-.572a.282.282 0 0 0-.286-.285H17.962a.282.282 0 0 0-.285.285v.572c0 .16.125.286.285.286h.858c0 3.303 1.58 5.696 3.33 6.857-1.75 1.16-3.33 3.553-3.33 6.857h-.858a.282.282 0 0 0-.285.286V34c0 .16.125.286.285.286h13.143c.161 0 .286-.125.286-.286v-.571a.282.282 0 0 0-.286-.286h-.857c0-3.304-1.58-5.697-3.33-6.857 1.75-1.161 3.33-3.554 3.33-6.857Zm-1.143 0a7.916 7.916 0 0 1-.759 3.428h-7.625a7.914 7.914 0 0 1-.759-3.428h9.143Zm-.509 10.857h-8.125c.661-1.724 1.849-2.947 3.036-3.429h2.054c1.187.482 2.375 1.706 3.035 3.429Z" fill="#fff"/></svg>