<svg width="643" height="495" fill="none" xmlns="http://www.w3.org/2000/svg"><path fill-rule="evenodd" clip-rule="evenodd" d="M351.797 465.954C220.801 453.421 112.375 363.113 64.867 248 17.356 132.887 196.228 34.828 325.062 29.21 453.897 23.592 553.35 131.297 553.35 253.974s-70.556 224.513-201.553 211.98Z" fill="#FFE5D2"/><path fill-rule="evenodd" clip-rule="evenodd" d="M512.966 343.694c.107-.059.775.771 1.763 2.405.992 1.628 2.226 4.101 3.372 7.293 2.351 6.36 3.826 15.75 2.952 25.99-.868 10.239-3.383 19.227-5.324 25.625-1.985 6.4-3.446 10.285-3.698 10.22-.278-.073.708-4.092 2.337-10.555 1.587-6.462 3.852-15.402 4.701-25.431.853-10.027-.361-19.152-2.311-25.461-1.895-6.34-4.104-9.934-3.792-10.086ZM519.671 292.45c.125-.052.933 1.339 2.281 3.905 1.347 2.566 3.239 6.305 5.478 10.971 4.442 9.331 10.42 22.393 14.756 37.558 2.131 7.586 3.584 14.96 4.319 21.733.742 6.771.817 12.923.446 18.057-.359 5.138-1.048 9.26-1.711 12.062-.656 2.809-1.176 4.321-1.294 4.297-.367-.067 1.256-6.249 1.601-16.42.428-10.15-.988-24.252-5.285-39.247-4.286-14.999-10.019-28.069-14.123-37.516l-4.895-11.198c-1.13-2.656-1.699-4.149-1.573-4.202ZM271.538 352.595c.23.233-2.026 2.258-4.954 6.017-.727.945-1.517 1.977-2.255 3.157-.808 1.137-1.511 2.441-2.293 3.787-1.454 2.745-2.834 5.864-3.898 9.259-1.018 3.408-1.612 6.74-1.932 9.792-.097 1.53-.239 2.987-.198 4.352-.041 1.37.043 2.641.124 3.805.355 4.648 1.123 7.492.795 7.575-.198.064-1.461-2.683-2.194-7.44-.175-1.188-.343-2.494-.375-3.907-.113-1.412-.032-2.921.019-4.511.229-3.17.791-6.646 1.849-10.183 1.104-3.527 2.591-6.751 4.191-9.55.855-1.373 1.638-2.692 2.533-3.83.824-1.182 1.706-2.204 2.526-3.122 3.309-3.661 5.931-5.354 6.062-5.201ZM276.833 369.001c.167.251-1.09 1.155-2.732 2.886-.832.854-1.708 1.962-2.569 3.246a24.503 24.503 0 0 0-2.238 4.454 23.73 23.73 0 0 0-1.155 4.806c-.164 1.51-.2 2.889-.105 4.046.16 2.314.558 3.757.261 3.858-.213.084-1.108-1.236-1.655-3.682-.286-1.22-.403-2.713-.329-4.367a19.825 19.825 0 0 1 1.102-5.271 20.477 20.477 0 0 1 2.586-4.79c1.024-1.346 2.096-2.453 3.118-3.247 2.033-1.611 3.603-2.131 3.716-1.939ZM203.32 216.107c.102-.084.993.74 2.521 2.313a36.82 36.82 0 0 1 2.663 2.966c.98 1.198 2.159 2.528 3.266 4.126l1.792 2.476c.617.867 1.176 1.815 1.799 2.773 1.274 1.903 2.417 4.05 3.66 6.29 2.346 4.545 4.589 9.702 6.376 15.293 1.729 5.607 2.827 11.085 3.483 16.098.25 2.517.531 4.904.56 7.151.03 1.123.109 2.205.091 3.249-.024 1.041-.05 2.04-.074 2.994-.005 1.91-.227 3.627-.357 5.135a34.173 34.173 0 0 1-.523 3.85c-.374 2.102-.645 3.25-.781 3.232-.35-.044.31-4.702.255-12.231-.019-.942-.036-1.925-.055-2.953-.023-1.026-.139-2.091-.204-3.194-.098-2.209-.437-4.551-.731-7.019-.746-4.915-1.876-10.277-3.573-15.78-1.755-5.488-3.903-10.568-6.117-15.075-1.177-2.221-2.247-4.361-3.439-6.266-.584-.959-1.102-1.912-1.674-2.785l-1.66-2.506c-4.302-6.348-7.549-9.92-7.278-10.137ZM225.85 224.879c.17-.142 2.455 1.869 5.361 5.746 1.463 1.929 3.004 4.362 4.504 7.166a61.853 61.853 0 0 1 3.956 9.504 60.822 60.822 0 0 1 2.168 10.004c.359 3.121.471 5.95.356 8.318-.201 4.74-.958 7.597-1.181 7.564-.32-.036-.064-2.929-.226-7.565-.065-2.316-.319-5.068-.766-8.093a73.607 73.607 0 0 0-2.258-9.696c-1.079-3.375-2.378-6.507-3.704-9.295-1.372-2.77-2.747-5.208-4.03-7.188-2.542-3.973-4.426-6.27-4.18-6.465Z" fill="#fff"/><path fill-rule="evenodd" clip-rule="evenodd" d="m146.956 378.076-1.732-3.327-48.217 34.665 21.035 32.066 47.998-38.079-19.084-25.325Z" fill="#FF7B5B"/><path fill-rule="evenodd" clip-rule="evenodd" d="m99.027 410.155 18.48 30.071 1.182-.496-16.457-28.117-3.205-1.458Z" fill="#D7D4D4"/><path fill-rule="evenodd" clip-rule="evenodd" d="m146.004 377.418-46.977 32.737s.197.703 1.363 1.136c1.167.434 1.842.323 1.842.323l49.388-31.805s-2.847-.623-3.88-1.348c-1.034-.727-1.736-1.043-1.736-1.043Z" fill="#F5F3F3"/><path fill-rule="evenodd" clip-rule="evenodd" d="m152.827 378.526-51.477 32.353 16.719 29.815 2.693 4.128 51.479-35.849s-5.422-7.615-8.677-12.212c-3.256-4.598-9.646-15.44-9.994-16.135-.349-.695-.743-2.1-.743-2.1Z" fill="#FF7B5B"/><path fill-rule="evenodd" clip-rule="evenodd" d="m577.348 155.166 1.453-2.795 40.491 29.11-17.665 26.927-40.305-31.977 16.026-21.265Z" fill="#775298"/><path fill-rule="evenodd" clip-rule="evenodd" d="m617.595 182.103-15.517 25.251-.993-.415 13.82-23.611 2.69-1.225Z" fill="#D7D4D4"/><path fill-rule="evenodd" clip-rule="evenodd" d="m578.148 154.612 39.448 27.491s-.167.59-1.144.954c-.981.364-1.548.271-1.548.271l-41.473-26.708s2.391-.522 3.259-1.132c.867-.611 1.458-.876 1.458-.876Z" fill="#F5F3F3"/><path fill-rule="evenodd" clip-rule="evenodd" d="m572.418 155.544 43.227 27.167-14.038 25.037-2.262 3.466-43.231-30.104s4.555-6.395 7.287-10.255c2.736-3.861 8.101-12.966 8.392-13.549.293-.582.625-1.762.625-1.762Z" fill="#775298"/><path fill-rule="evenodd" clip-rule="evenodd" d="M89.39 102.772s-3.057 1.991-1.53 5.31c1.53 3.32 8.232 13.166 17.286 12.834.371-.012-11.406-18.144-11.406-18.144h-4.35Z" fill="#FF7B5B"/><path fill-rule="evenodd" clip-rule="evenodd" d="M75.54 284.294s-11.322-9.517-14.946-7.812c-4.429 2.083-29.776 25.451-28.785 36.46.407 4.509 5.985.646 15.925-9.056 9.943-9.701 22.462-5.543 22.462-5.543l5.344-14.049ZM103.047 300.343l-13.668-7.715s-35.427 31.252-29.892 35.419c4.198 3.16 6.666.326 16.607-9.376 9.94-9.699 22.535-4.122 22.535-4.122l4.418-14.206Z" fill="#775298"/><path fill-rule="evenodd" clip-rule="evenodd" d="m186.537 197.526 2.563 34.245-56.895-13.946 54.332-20.299Z" fill="#F3A683"/><path fill-rule="evenodd" clip-rule="evenodd" d="M132.205 219.003s49.768 2.952 56.394.871c0 0 9.726 89.903-7.579 99.602-17.307 9.702-56.144-4.504-56.144-4.504l10.486-19.401 22.609-1.386V259.54l-1.622.346-24.144-40.883Z" fill="#112129"/><path fill-rule="evenodd" clip-rule="evenodd" d="M69.821 280.327s-12.518 4.851-8.467 16.631c0 0 42.73 31.527 63.523 24.251 11.649-4.076 24.162-35.174 32.916-61.743l30.807-39.592s-14.529.684-19.376.666c-9.264-.033-37.018-1.537-37.018-1.537s-14.498 71.372-19.663 73.104c-5.166 1.731-42.722-11.78-42.722-11.78Z" fill="#22343D"/><path fill-rule="evenodd" clip-rule="evenodd" d="M143.803 129.487s29.826-26.332 34.98-33.262c5.154-6.93 16.203-30.142 29.823-39.842l-6.627-13.166s4.052-2.078 6.627 3.464c0 0 9.572-18.014 11.782-17.67 2.211.347-4.417 13.86-4.417 13.86s9.208-12.474 11.784-12.126c2.575.346-6.628 14.021-6.628 14.021s10.308-11.25 11.782-9.864c1.473 1.386-8.101 9.864-8.101 9.864s10.309-5.569 11.414-3.733c1.105 1.838-10.309 6.687-10.309 6.687s-1.105 7.97-8.1 11.433c0 0-13.851 35.213-26.371 46.646l-40.216 39.328-7.423-15.64ZM108.199 143.134s-28.26 27.817-35.672 32.601c-7.413 4.783-32.184 14.963-42.62 27.69l-13.93-6.359s-2.245 3.79 3.621 6.266c0 0-19.236 8.84-18.887 10.923.346 2.082 14.769-4.028 14.769-4.028s-13.342 8.547-12.998 10.974c.345 2.426 14.963-6.106 14.963-6.106s-12.052 9.594-10.592 10.992c1.457 1.399 10.559-7.527 10.559-7.527s-6.016 9.647-4.073 10.703c1.94 1.056 7.202-9.638 7.202-9.638s8.477-.962 12.227-7.513c0 0 35.446-13.271 47.715-24.943l44.111-29.41-16.395-14.625Z" fill="#FFC6B2"/><path fill-rule="evenodd" clip-rule="evenodd" d="M118.794 132.047 104.5 145.213l3.625 14.842s14.082 31.81 16.211 39.571c3.309 12.067-2.044 30.467-2.044 30.467s23.873-1.866 45.596-2.558c21.72-.693 28.826-7.278 28.826-7.278s-18.833-59.021-31.836-75.52c-13.004-16.496-17.734-21.66-17.734-21.66l-19.146 3.938-9.204 5.032Z" fill="#fff"/><path fill-rule="evenodd" clip-rule="evenodd" d="m160.742 142.792 14.893-8.954s2.275-9.593-15.685-20.908l-21.061 12.417 21.853 17.445ZM107.512 144.172c-8.164 1.078-23.085 20.548-24.749 20.512 0 0 10.501 16.124 18.819 16.647 0 0 36.605-41.208 5.93-37.159Z" fill="#fff"/><path fill-rule="evenodd" clip-rule="evenodd" d="M136.333 131.503s-11.867-8.344-11.456-11.67c.104-.838 1.749-2.198 2.177-3.405 2.301-6.496-8.793-23.233-15.61-26.76-5.362-2.775-3.012-3.02-14.297 3.29-11.286 6.31-4.856 17.222.183 22.866 4.765 5.335 10.221 7.62 15.131 8.006l6.98 14.588 16.892-6.915Z" fill="#FFC6B2"/><path fill-rule="evenodd" clip-rule="evenodd" d="M114.919 143.085c-2.244-5.181 2.006-11.707 9.495-14.581 7.491-2.875 15.379-1.005 17.628 4.173 2.243 5.179-5.293 12.965-9.5 14.58-4.207 1.615-15.379 1.006-17.623-4.172ZM97.33 115.824s-3.848-.2-4.275 2.213c-.43 2.415 7.055 2.415 9.835.604l-5.56-2.817Z" fill="#FFC6B2"/><path fill-rule="evenodd" clip-rule="evenodd" d="M99.256 118.037c-.732-4.361-5.671-7.604-5.425-11.854 2.368.017 3.888-2.742 2.81-5.101-.424-.926-1.142-1.72-1.6-2.634-.459-.913-.58-2.11.122-2.626.333-.243.784-.286 1.215-.327 3.51-.339 9.525.652 12.756-.475 3.075-1.073 6.371-3.159 6.051-6.704-.279-3.088-3.177-5.591-5.839-7.483-1.524-1.084-5.882-3.92-7.526-3.662-2.51.392-3.117 3.542-3.298 6.18-1.756-1.573-4.345-1.321-5.871-.042-1.527 1.28-2.25 3.313-2.914 5.275-.666 1.964-1.371 4.002-2.877 5.306-1.404 1.216-3.624 2.135-3.333 4.203.346 2.463 3.767 3.339 5.348 5.441-.39-.516-.72 2.774-.495 3.331.675 1.68 2.36 2.792 3.577 4.077 2.594 2.739 3.862 5.497 7.299 7.095Z" fill="#FF7B5B"/><path fill-rule="evenodd" clip-rule="evenodd" d="m120.759 108.064-8.77 4.268s10.534 7.194 8.77-4.268Z" fill="#fff"/><path fill-rule="evenodd" clip-rule="evenodd" d="M108.693 109.756c.48.856-.23 2.093-1.584 2.763-1.354.671-2.84.521-3.319-.335-.478-.856.23-2.092 1.584-2.763 1.356-.671 2.84-.521 3.319.335ZM121.499 101.525c.479.855-.23 2.093-1.584 2.763-1.354.671-2.84.521-3.319-.335-.478-.856.23-2.093 1.584-2.763 1.355-.671 2.84-.521 3.319.335Z" fill="#FFB2A0"/><path fill-rule="evenodd" clip-rule="evenodd" d="M114.637 107.761c-.041-.048.123-.251.502-.508.362-.263.992-.547 1.46-1.021.463-.459.63-1.417-.08-1.552-.737-.235-1.574.56-2.534 1.317l-.705.55c-.217.188-.675.463-1.15.407-.905-.137-1.29-.705-1.638-1.086a7.357 7.357 0 0 1-1.361-2.478c-.471-1.537-.259-2.529-.146-2.521.157-.007.209.947.808 2.299a8.176 8.176 0 0 0 1.407 2.155c.32.366.723.706 1.01.717.12.006.214-.033.44-.211l.696-.551c.484-.367.903-.739 1.456-1.086.537-.34 1.303-.556 1.99-.336.732.181 1.162.985 1.035 1.544-.083.569-.384.989-.726 1.296-.722.568-1.368.705-1.775.877-.417.149-.646.241-.689.188Z" fill="#FF7B5B"/><path fill-rule="evenodd" clip-rule="evenodd" d="M112.461 123.83s5.594.03 8.629-1.729c0 0-2.567 2.968-7.705 3.736l-.924-2.007Z" fill="#FFA192"/><path fill-rule="evenodd" clip-rule="evenodd" d="M114.887 100.224c-.051.26-.833.341-1.66.684-.838.319-1.443.792-1.677.645-.239-.119.157-1.059 1.289-1.508 1.131-.45 2.122-.066 2.048.179ZM103.924 106.991c-.211-.148.12-.995.925-1.844.816-.867 1.857-1.156 1.967-.913.116.236-.519.785-1.232 1.547-.726.759-1.431 1.37-1.66 1.21Z" fill="#22343D"/><path fill-rule="evenodd" clip-rule="evenodd" d="M99.674 105.683c-.453-.317-.806-1.67.928-3.493 1.751-1.864 3.708-1.536 3.942-1.018.252.509-.399 1.232-1.936 2.871-1.56 1.634-2.443 1.986-2.934 1.64ZM108.884 98.5c-.251-.44.026-1.726 2.282-2.62 2.288-.926 3.813.095 3.791.625-.004.527-.866.896-2.876 1.711-2.024.8-2.927.766-3.197.285Z" fill="#FF7B5B"/><path fill-rule="evenodd" clip-rule="evenodd" d="M590.122 111.283c.148.137-2.282 2.71-7.325 5.512-4.98 2.798-12.816 5.573-21.829 5.635-9.013.063-16.893-2.602-21.916-5.332-5.085-2.73-7.555-5.27-7.411-5.411.21-.249 2.973 1.893 8.065 4.238 5.043 2.355 12.642 4.692 21.246 4.633 8.606-.061 16.167-2.503 21.173-4.927 5.053-2.416 7.784-4.596 7.997-4.348ZM535.135 107.397c-.138.284-2.829-.766-7.361-1.717-2.259-.502-5.001-.889-8.053-1.246-3.065-.319-6.452-.572-10.029-.812-3.578-.236-7.003-.507-10.114-.869-3.11-.389-5.905-.851-8.208-1.437-4.622-1.135-7.241-2.478-7.149-2.668.12-.286 2.873.599 7.45 1.374 2.284.41 5.04.728 8.109 1.015 3.075.264 6.473.481 10.055.718 3.586.24 7.017.549 10.125.969 3.106.459 5.892.993 8.171 1.675 4.578 1.315 7.107 2.819 7.004 2.998Z" fill="#775298"/><mask id="a" style="mask-type:alpha" maskUnits="userSpaceOnUse" x="462" y="35" width="181" height="84"><path fill-rule="evenodd" clip-rule="evenodd" d="M462.449 35.206H643v83.235H462.449V35.206Z" fill="#fff"/></mask><g mask="url(#a)"><path fill-rule="evenodd" clip-rule="evenodd" d="M480.61 52.065c8.593-1.715 17.496-.238 26.161 1.12 8.665 1.359 17.661 2.584 26.133.395 15.295-3.95 26.907-18.49 42.768-18.373 6.531.047 12.688 2.672 19.051 4.06 7.901 1.725 16.132 1.54 24.136 2.77 8.006 1.231 16.274 4.26 20.799 10.595 5.366 7.518 3.895 18.122-1.737 25.466-5.632 7.346-14.651 11.819-23.891 14.353-6.446 1.767-13.313 2.79-18.892 6.306-5.642 3.558-9.326 9.284-14.583 13.33-13.191 10.15-33.72 7.241-47.345-2.388-3.424-2.418-6.597-5.225-10.443-6.995-15.644-7.206-38.144 2.332-51.618-10.777-13.682-13.315-11.733-35.632 9.461-39.862Z" fill="#775298"/></g><path fill-rule="evenodd" clip-rule="evenodd" d="M476.316 309.916s14.334 28.909 16.011 23.556c1.673-5.355 1.119-18.211.222-20.047-.903-1.835-6.762-9.944-6.762-9.944l-9.471 6.435Z" fill="#FFB2A0"/><path fill-rule="evenodd" clip-rule="evenodd" d="M579.962 76.152c1.327 1.598.441-.119 1.942 2.187 6.242-.205 10.431-5.174 10.431-5.174s9.907.246 9.793-1.419c-.113-1.668-9.497-1.045-9.497-1.045s9.927-2.934 9.383-4.398c-.542-1.464-12.003 3.204-12.003 3.204s11.565-6.754 9.856-7.838c-1.707-1.08-12.835 4.816-12.835 4.816s9.671-7.474 8.222-8.437c-1.447-.964-14.861 8.764-14.861 8.764.195-4.785-3.453-4.618-3.453-4.618l.151 11.685s2.26 1.537 2.871 2.273ZM433.115 23.268c-2.12.367-.477-.326-3.228.464-4.52-4.055-3.92-10.428-3.92-10.428s-7.58-6.004-6.323-7.177c1.264-1.176 7.84 5.152 7.84 5.152s-5.351-8.396-3.911-9.151c1.438-.755 6.716 9.895 6.716 9.895S426.406-.253 428.447.005c2.039.257 6.201 11.616 6.201 11.616S432.691-.008 434.45.176c1.762.183 4.932 15.838 4.932 15.838 3.23-3.7 5.838-1.296 5.838-1.296l-8.186 8.472s-2.945-.09-3.919.078ZM484.535 72.076c-2.741-.424-9.37 3.721-12.686 10.477-1.856 3.781-3.134 7.623-1.003 13.772 1.003 2.893 3.103 3.255 3.572 4.551.592 1.641-1.37 6.812-1.37 6.812l7.825 2.974c.508-3.553 1.084-7.127 4.932-8.67 1.439-.577 2.98-.943 4.339-1.676 3.665-1.977 5.623-6.302 7.129-9.843 1.124-2.645-5.865-17.337-12.738-18.397Z" fill="#FFC6B2"/><path fill-rule="evenodd" clip-rule="evenodd" d="m475.221 172.479-13.109-4.949s-38.903 67.882-38.741 86.717c.161 18.833 53.431 56.541 53.431 56.541l8.985-7.306s-16.447-26.985-25.239-36.499c-8.793-9.516 14.673-94.504 14.673-94.504Z" fill="#FFB2A0"/><path fill-rule="evenodd" clip-rule="evenodd" d="M540.307 249.807s28.892-12.898 23.087-14.038c-5.806-1.133-19.384.43-21.253 1.422-1.873.993-9.985 7.145-9.985 7.145l8.151 5.471Z" fill="#FFC6B2"/><path fill-rule="evenodd" clip-rule="evenodd" d="m488.097 171.89-19.886 6.808s-19.892 82.325-12.297 95.25c7.591 12.93 28.918 4.374 59.291-11.224l25.441-13.068-8.492-5.318s-29.604 5.458-37.918 10.901c0 0 4.339-11.568 10.124-27.896 5.784-16.33 9.774-32.999-16.263-55.453ZM463.62 115.805c0-5.47 1.871-9.426 7.684-9.426 5.813 0 13.849 1.917 13.849 7.388 0 5.473-4.581 14.356-10.397 14.356-5.812 0-11.136-6.846-11.136-12.318Z" fill="#FFC6B2"/><path fill-rule="evenodd" clip-rule="evenodd" d="M468.211 105.595s-18.076-18.406-21.692-36.438c-3.618-18.029-9.761-47.286-9.761-47.286l-6.87 1.861s-3.255 39.984 0 46.106c3.253 6.124 19.152 46.891 23.993 57.598l14.33-21.841ZM487.631 119.941s1.39-5.726 24.248-13.508c22.857-7.78 65.98-33.002 65.98-33.002l4.303 4.632s-23.431 25.466-37.063 29.933c-13.631 4.468-42.584 22.08-45.563 23.489-4.505 2.133-4.45 4.816-11.905-11.544Z" fill="#FFC6B2"/><path fill-rule="evenodd" clip-rule="evenodd" d="M468.211 105.595s-18.366 5.601-18.366 31.896c0 0 .012 36.013 4.34 42.564 0 0 7.037 1.697 15.81 0 9.198-1.779 18.102-8.165 18.102-8.165l14.446-40.809-1.727-19.121-19.643-3.568s5.635 24.776-14.752 14.125c-3.962-2.07 5.829-16.127 5.829-16.127l-4.039-.795Z" fill="#22343D"/><path fill-rule="evenodd" clip-rule="evenodd" d="m452.671 126.981-9.049-17.74s1.297-10.762 17.911-14.619c0 0 1.679 5.425 3.521 7.498 1.841 2.071 7.202 4.276 7.202 4.276l-19.585 20.585ZM486.884 134.112l28.776-5.55s5.003-9.754-6.86-21.357c0 0-22.446 1.276-25.351 1.503-2.86.224-.897 2.296-.897 2.296l4.332 23.108ZM454.139 171.283s-27.218 47.351-31.714 55.811c0 0 80.298 34.708 112.895-7.069 0 0-18.542-36.927-47.207-50.986l-12.366-3.484-21.124 5.501" fill="#22343D"/><path fill-rule="evenodd" clip-rule="evenodd" d="M496.219 90.025s3.101-2.918 5.008-.898-6.915 4.937-6.915 4.937l1.907-4.04Z" fill="#FFC6B2"/><path fill-rule="evenodd" clip-rule="evenodd" d="M552.931 50.236c.031.101-1.167.589-3.454 1.1-2.28.516-5.665.985-9.869 1.065-4.201.08-9.197-.272-14.665-.97-5.473-.682-11.417-1.685-17.672-2.327-6.244-.628-12.248-.743-17.566.065-5.319.795-9.923 2.434-13.442 4.348-3.519 1.93-5.968 4.07-7.471 5.69-1.512 1.622-2.192 2.658-2.346 2.57-.084-.04.371-1.207 1.741-3.024 1.361-1.813 3.764-4.204 7.346-6.367 3.58-2.148 8.339-3.995 13.868-4.919 5.536-.937 11.728-.865 18.081-.224 6.359.652 12.311 1.712 17.72 2.48 5.407.784 10.295 1.264 14.411 1.354 8.25.217 13.243-1.161 13.318-.84Z" fill="#775298"/><path fill-rule="evenodd" clip-rule="evenodd" d="M480.43 88.369c-.008.114-.892.195-2.24-.226-.333-.11-.727-.255-1.093-.571a1.677 1.677 0 0 1-.452-.62 1.323 1.323 0 0 1 .01-1.06c.043-.06.04-.206.126-.209l.262-.008c.168-.022.366.03.56.064.357.064.471.054.725.07.444.01.905-.033 1.365-.129 1.883-.373 3.143-1.662 3.707-2.722.593-1.067.645-1.87.803-1.86.111-.014.331.84-.158 2.127a5.35 5.35 0 0 1-1.382 1.99 5.897 5.897 0 0 1-2.751 1.378 6.416 6.416 0 0 1-1.624.132 6.65 6.65 0 0 1-.698-.076c-.097-.015-.085-.035-.104-.024-.011.01-.017.028-.016.054.039.123.11.24.21.345.201.214.494.373.779.507 1.166.538 1.993.697 1.971.838Z" fill="#FF7B5B"/><path fill-rule="evenodd" clip-rule="evenodd" d="m473.975 88.684 10.601 3.93s-9.316 6.045-10.601-3.93Z" fill="#fff"/><path fill-rule="evenodd" clip-rule="evenodd" d="M489.102 90.575c-.376.673-1.544.79-2.608.263-1.064-.526-1.622-1.499-1.247-2.17.377-.674 1.545-.792 2.61-.265 1.064.527 1.622 1.499 1.245 2.172ZM477.271 84.673c-.321.697-1.475.9-2.579.45-1.103-.45-1.739-1.38-1.417-2.077.32-.698 1.475-.9 2.579-.45 1.103.45 1.739 1.38 1.417 2.077Z" fill="#FFB2A0"/><path fill-rule="evenodd" clip-rule="evenodd" d="M473.345 99.623s3.716 2.929 7.593 1.986c0 0-1.337 1.885-6.482 1.193 0 0 .427-2.078-1.111-3.179Z" fill="#FFA192"/><path fill-rule="evenodd" clip-rule="evenodd" d="M488.085 84.31c0 .437-.376.791-.84.791-.463 0-.84-.354-.84-.79 0-.436.377-.79.84-.79.464 0 .84.354.84.79ZM481.212 81.981c0 .437-.376.79-.84.79-.463 0-.838-.353-.838-.79 0-.436.375-.79.838-.79.464 0 .84.354.84.79Z" fill="#22343D"/><path fill-rule="evenodd" clip-rule="evenodd" d="M490.784 82.206c-.26.103-.761-.468-1.519-.93-.743-.482-1.496-.699-1.495-.963-.025-.254 1.027-.46 2.048.185 1.022.64 1.225 1.631.966 1.708ZM478.671 78.371c-.017-.246.885-.557 2.093-.527 1.229.024 2.137.586 2.011.82-.116.237-.972.135-2.051.116-1.084-.03-2.036-.14-2.053-.409Z" fill="#775298"/><path fill-rule="evenodd" clip-rule="evenodd" d="M482.456 321.663s4.41 14.727 8.963 13.521c4.553-1.204 1.129-21.758 1.129-21.758l-4.543-6.756s4.268 34.405-5.549 14.993ZM538.06 240.015s3.206-3.292 7.093-3.84c3.888-.549 17.783-2.104 19.824-.367 2.042 1.738-11.262 7.563-11.262 7.563s4.635-2.78 2.71-3.813c-3.401-1.83-18.365.457-18.365.457ZM532.547 243.958l4.35 8.31 2.374-1.24-5.802-8.186-.922 1.116ZM483.901 300.149l-10.678 9.056 3.164 2.482 8.964-9.18-1.45-2.358ZM260.648 209.994c-3.037-7.092-4.204-14.987-8.736-21.333-6.521-9.131-19.046-13.661-24.337-23.472-2.248-4.167-2.953-8.934-2.976-13.606-.044-9.244 2.897-19.072 10.486-24.946 8.719-6.751 21.802-6.657 32.014-2.122 10.21 4.535 18.011 12.767 24.643 21.365 6.634 8.597 12.441 17.823 20.166 25.571 5.727 5.745 12.521 10.7 16.835 17.449 11.827 18.503-.342 41.915-21.222 48.593-18.346 5.866-40.526-12.674-46.873-27.499Z" fill="#22343D"/><path fill-rule="evenodd" clip-rule="evenodd" d="M234.511 340.493c1.816 1.405-.165.432 2.476 2.051-.589 6.21-6.693 10.122-6.693 10.122s-.258 9.886-2.219 9.683c-1.965-.201-.706-9.52-.706-9.52s-4.019 9.738-5.719 9.118c-1.699-.618 4.453-11.791 4.453-11.791s-8.622 11.167-9.807 9.406c-1.183-1.759 6.404-12.535 6.404-12.535s-9.368 9.242-10.427 7.745c-1.057-1.492 11.18-14.344 11.18-14.344-5.664-.059-5.263-3.686-5.263-3.686l13.795.77s1.69 2.333 2.526 2.981ZM366.299 154.046c2.361.389.529-.347 3.592.492 5.03-4.301 4.363-11.058 4.363-11.058s8.437-6.367 7.038-7.611c-1.408-1.246-8.727 5.462-8.727 5.462s5.955-8.902 4.353-9.704c-1.598-.799-7.473 10.494-7.473 10.494s4.322-13.017 2.049-12.745c-2.268.274-6.901 12.319-6.901 12.319s2.178-12.331.219-12.136c-1.961.194-5.132 16.348-5.132 16.348-4.62-3.538-7.854-1.273-7.854-1.273l10.111 9.328s3.277-.094 4.362.084ZM308.547 208.036c4.268-.627 17.282 7.309 13.97 23.425-.276 1.353-2.155 4.332-2.622 5.564-.591 1.56 4.012 7.271 4.012 7.271l-11.885 3.573c-.506-3.378.347-8.315-3.494-9.783-1.436-.549-2.974-.896-4.33-1.593-3.659-1.88-5.613-5.994-7.116-9.361-1.122-2.517-1.977-5.223-1.945-7.954.078-6.876 6.55-10.134 13.41-11.142Z" fill="#FFC6B2"/><path fill-rule="evenodd" clip-rule="evenodd" d="M332.347 252.173c0-5.8-1.955-8.015-8.426-8.015-6.47 0-15.011 2.215-15.011 8.015 0 5.803 4.569 13.063 11.042 13.063 6.469 0 12.395-7.26 12.395-13.063Z" fill="#FFC6B2"/><path fill-rule="evenodd" clip-rule="evenodd" d="M327.237 241.347s20.119-19.519 24.144-38.639c4.026-19.119 10.864-50.144 10.864-50.144l7.646 1.973s3.623 42.4 0 48.893c-3.62 6.494-24.145 51.588-23.743 63.131l-18.911-25.214ZM291.373 250.797s-6.841 1.082-17.304 23.45c-10.462 22.366-42.655 64.006-42.655 64.006l5.232 4.533s31.388-22.003 37.423-35.35c6.035-13.348 13.681-29.942 17.304-29.222 3.621.723 18.913-19.121 0-27.417Z" fill="#FFC6B2"/><path fill-rule="evenodd" clip-rule="evenodd" d="m345.237 269.543 9.368-24.33s-1.445-11.411-19.935-15.501l-10.475 14.2 21.042 25.631ZM294.497 248.931s-11.053.876-20.011 19.39c0 0 9.852 12.798 17.059 13.23 0 0 26.769-21.53 2.952-32.62Z" fill="#FF7B5B"/><path fill-rule="evenodd" clip-rule="evenodd" d="M324.864 468.488s-15.954 30.655-17.819 24.98c-1.863-5.678-1.247-19.313-.248-21.259 1.004-1.947 7.526-10.545 7.526-10.545l10.541 6.824Z" fill="#FFC6B2"/><path fill-rule="evenodd" clip-rule="evenodd" d="m326.083 322.747 14.59-5.249s43.3 71.986 43.121 91.958c-.18 19.969-59.47 59.957-59.47 59.957l-10.001-7.749s28.103-38.879 37.888-48.968c4.893-5.046-30.138-29.772-35.444-53.564-5.306-23.791 9.316-36.385 9.316-36.385Z" fill="#654287"/><path fill-rule="evenodd" clip-rule="evenodd" d="M238.36 452.429s-29.844 20.699-28.603 14.89c1.246-5.815 8.759-17.68 10.643-19.001 1.887-1.318 12.076-6.283 12.076-6.283l5.884 10.394Z" fill="#FFC6B2"/><path fill-rule="evenodd" clip-rule="evenodd" d="m286.388 348.238 43.166-23.54s1.713 81.77-8.65 99.45c-10.361 17.68-83.497 28.881-83.497 28.881l-4.931-10.994s45.121-25.296 58.974-30.246c13.855-4.953-5.062-63.551-5.062-63.551Z" fill="#775298"/><path fill-rule="evenodd" clip-rule="evenodd" d="M312.096 308.596s-31.784 10.589-25.708 39.642c6.075 29.052 16.202 34.498 16.202 34.498l18.228-28.142 18.3-36.856-18.3-2.184-8.722-6.958Z" fill="#775298"/><path fill-rule="evenodd" clip-rule="evenodd" d="M327.237 241.347s23.401 12.34 23.401 40.223c0 0-2.973 31.789-7.791 38.735 0 0-7.832 1.8-17.597 0-10.238-1.886-20.147-8.657-20.147-8.657l-7.996-38.92-6.221-22.724 3.372-1.047 17.6-1.819s-2.529 24.737 17.123 12.453c4.138-2.588-5.153-15.486-5.153-15.486l3.409-2.758Z" fill="#FF7B5B"/><path fill-rule="evenodd" clip-rule="evenodd" d="m341.56 135.979 49.064 26.931 27.599-49.052-45.998-24.046-30.665 46.167ZM409.816 370.787l35.09-20.44-28.991-47.615-32.076 19.572 25.977 48.483Z" fill="#fff"/><path fill-rule="evenodd" clip-rule="evenodd" d="M237.042 167.891c.093-.078 1.176.847 2.889 2.735 1.706 1.89 4.033 4.763 6.369 8.641 2.345 3.862 4.665 8.762 6.321 14.45 1.715 5.645 2.865 11.991 5.501 18.104 1.368 3.019 3.026 5.831 5 8.316 1.991 2.469 4.2 4.636 6.473 6.526 4.646 3.679 9.513 6.209 13.85 7.671 4.333 1.483 8.045 2.148 10.625 2.386 2.578.269 4.035.308 4.036.468.008.099-1.445.308-4.092.26-2.646-.019-6.496-.495-11.032-1.863-4.539-1.349-9.666-3.845-14.57-7.605-2.405-1.932-4.743-4.169-6.848-6.741-2.088-2.586-3.852-5.543-5.285-8.708-2.745-6.39-3.83-12.791-5.427-18.362a64.79 64.79 0 0 0-5.788-14.269c-2.131-3.881-4.245-6.823-5.744-8.829-1.507-2.002-2.391-3.086-2.278-3.18ZM297.322 136.383c.36-.052.711 4.493 3.413 11.215a49.591 49.591 0 0 0 6.24 11.061c1.441 1.934 3.099 3.839 4.976 5.737 1.864 1.906 3.894 3.843 5.813 6.015 3.847 4.383 6.495 9.121 8.987 13.303 2.475 4.223 4.446 8.24 5.448 11.833 1.045 3.583 1.106 6.666.775 8.712-.346 2.055-.89 3.096-.979 3.067-.173-.042.108-1.142.207-3.133.085-1.988-.184-4.885-1.353-8.271-1.129-3.4-3.161-7.231-5.697-11.364-2.575-4.132-5.245-8.774-8.92-12.952-1.845-2.09-3.847-4.02-5.722-5.974-1.886-1.944-3.6-3.969-5.047-5.996-2.902-4.056-4.84-8.099-6.053-11.594a39.792 39.792 0 0 1-2.02-8.474c-.248-2.036-.181-3.175-.068-3.185Z" fill="#22343D"/><path fill-rule="evenodd" clip-rule="evenodd" d="M312.363 225.553c-.019-.13.781-.25 1.535-1.084.174-.192.349-.473.346-.637-.004-.175-.134-.481-.359-.656a1.055 1.055 0 0 0-.834-.259c-.353.024-.783.189-1.345.268-1.231.154-2.191-.5-2.823-1.03a9.606 9.606 0 0 1-1.513-1.63c-.736-1.02-.965-1.758-.852-1.812.131-.065.574.545 1.404 1.401.414.425.937.913 1.553 1.383.609.456 1.353.872 2.096.762.394-.048.853-.221 1.412-.257.569-.053 1.202.194 1.549.562.37.376.577.819.533 1.343-.11.537-.412.788-.663 1.022-1.082.891-2.074.746-2.039.624Z" fill="#FF7B5B"/><path fill-rule="evenodd" clip-rule="evenodd" d="m318.161 226.321-9.423 3.224s7.996 6.582 9.423-3.224Z" fill="#fff"/><path fill-rule="evenodd" clip-rule="evenodd" d="M307.798 225.772c.377.674-.181 1.646-1.245 2.172-1.065.528-2.232.411-2.608-.263-.377-.671.181-1.644 1.245-2.172 1.064-.527 2.232-.41 2.608.263ZM318.969 220.382c.308.703-.343 1.622-1.454 2.054-1.112.433-2.263.214-2.572-.489-.308-.703.343-1.622 1.455-2.054 1.111-.432 2.262-.214 2.571.489Z" fill="#FFB2A0"/><path fill-rule="evenodd" clip-rule="evenodd" d="M309.017 238.322s3.153.604 7.171-.341c0 0-1.981 1.811-5.217 2.232 0 0-.726-1.261-1.954-1.891Z" fill="#FFA192"/><path fill-rule="evenodd" clip-rule="evenodd" d="M312.238 218.392c.353.282.397.78.097 1.113a.877.877 0 0 1-1.183.091.758.758 0 0 1-.097-1.113.876.876 0 0 1 1.183-.091ZM305.906 221.819a.76.76 0 0 1 .097 1.114.877.877 0 0 1-1.183.091.757.757 0 0 1-.097-1.113.876.876 0 0 1 1.183-.092ZM312.275 215.093c-.084.254-.87.244-1.734.491-.872.221-1.534.621-1.748.448-.222-.144.291-1.033 1.474-1.349 1.18-.32 2.114.176 2.008.41ZM301.337 221.31c-.212-.147.12-.995.925-1.842.814-.867 1.856-1.156 1.965-.915.117.236-.518.785-1.232 1.547-.724.759-1.43 1.372-1.658 1.21Z" fill="#22343D"/><path fill-rule="evenodd" clip-rule="evenodd" d="M297.783 227.893s-3.023-2.388-4.474-.227c-1.449 2.161 6.529 3.299 6.529 3.299l-2.055-3.072Z" fill="#FFC6B2"/><path fill-rule="evenodd" clip-rule="evenodd" d="M225.112 445.703s-4.333 1.772-5.463 2.837c-1.131 1.062-11.492 17.902-10.173 20.029 1.319 2.127 11.71-5.094 11.71-5.094s-8.695 1.55 3.926-17.772ZM309.662 467.97s-3.077 3.13-3.552 4.568c-.475 1.435-1.325 20.877.895 22.182 2.218 1.307 8.283-9.421 8.283-9.421s-7.251 5.344-5.626-17.284" fill="#775298"/></svg>